<?xml version="1.0" standalone="no"?>
<!DOCTYPE svg PUBLIC "-//W3C//DTD SVG 20010904//EN"
 "http://www.w3.org/TR/2001/REC-SVG-20010904/DTD/svg10.dtd">
<svg version="1.0" xmlns="http://www.w3.org/2000/svg"
 width="2560.000000pt" height="1080.000000pt" viewBox="0 0 2560.000000 1080.000000"
 preserveAspectRatio="xMidYMid meet">

<g transform="translate(0.000000,1080.000000) scale(0.100000,-0.100000)"
fill="#000000" stroke="none">
<path d="M4785 5150 c0 -2291 1 -3228 2 -2083 2 1146 2 3020 0 4165 -1 1146
-2 209 -2 -2082z"/>
<path d="M12560 7877 c0 -37 -39 -166 -68 -226 -31 -63 -172 -213 -265 -280
-97 -71 -312 -199 -456 -272 -75 -38 -170 -87 -211 -110 -41 -22 -115 -61
-165 -86 l-89 -45 89 -23 c245 -62 426 -165 607 -346 109 -108 192 -228 268
-384 114 -235 166 -444 176 -714 l7 -171 56 -1 c300 -6 1072 5 1206 16 418 37
960 106 979 125 13 13 -11 403 -35 570 -26 173 -85 406 -150 590 l-51 145 -57
34 c-46 28 -146 92 -297 189 -10 6 -38 22 -61 34 -24 12 -43 26 -43 30 0 4 -5
8 -11 8 -5 0 -36 17 -67 39 -31 21 -93 60 -137 86 -70 42 -177 110 -350 221
-27 17 -72 44 -100 59 -56 31 -135 93 -180 143 -73 80 -155 261 -155 342 0 19
-7 33 -19 40 -12 6 -101 10 -220 10 l-201 0 0 -23z m469 -603 c86 -14 113 -25
256 -99 88 -45 201 -107 250 -137 50 -30 101 -61 114 -69 14 -7 30 -18 35 -22
6 -4 54 -35 106 -69 82 -52 194 -132 210 -148 3 -3 30 -25 60 -50 76 -62 91
-78 143 -148 161 -219 277 -614 265 -902 l-3 -75 -95 -17 c-203 -36 -388 -59
-624 -78 -117 -10 -983 -15 -1031 -7 -17 3 -22 17 -32 93 -41 303 -96 492
-214 727 -42 85 -157 269 -179 287 -3 3 -16 19 -28 37 -39 56 -108 121 -244
229 -73 59 -134 110 -136 115 -5 12 160 132 243 176 141 76 292 129 448 158
104 19 340 18 456 -1z"/>
<path d="M13538 4830 c-66 -20 -148 -98 -174 -168 -25 -64 -15 -158 23 -214
57 -85 156 -123 313 -121 68 0 176 19 184 32 3 4 -2 21 -11 38 -14 29 -18 31
-47 25 -17 -4 -71 -7 -121 -7 -131 0 -187 30 -210 113 l-6 22 207 0 207 0 -6
65 c-11 116 -57 184 -146 214 -38 13 -172 13 -213 1z m178 -92 c32 -22 44 -44
44 -80 0 -16 -13 -18 -130 -18 -145 0 -150 3 -109 62 42 59 136 76 195 36z"/>
<path d="M15550 4828 c-73 -8 -113 -22 -152 -49 -110 -77 -145 -198 -88 -308
76 -150 338 -191 517 -81 81 49 115 170 78 279 -19 58 -79 116 -143 139 -52
19 -147 28 -212 20z m130 -99 c14 -7 38 -28 54 -48 26 -34 27 -41 24 -113 -3
-73 -5 -78 -38 -108 -78 -70 -202 -58 -257 27 -28 43 -25 148 6 192 46 64 137
85 211 50z"/>
<path d="M7620 4821 c-87 -28 -130 -73 -130 -135 1 -66 45 -102 180 -146 81
-27 110 -45 110 -70 0 -38 -42 -53 -132 -47 -46 3 -96 9 -113 12 -28 6 -31 4
-43 -36 -7 -23 -12 -42 -10 -43 21 -14 105 -26 185 -26 117 0 178 17 228 65
29 27 35 40 35 73 0 83 -34 112 -198 167 -67 23 -84 33 -88 52 -11 41 19 54
116 50 47 -1 91 -5 99 -7 20 -7 49 66 32 83 -14 14 -232 21 -271 8z"/>
<path d="M8069 4828 c-3 -13 -31 -325 -35 -400 l-7 -98 66 0 c54 0 67 3 71 18
2 9 8 92 12 185 3 92 9 167 13 167 4 0 28 -62 55 -137 26 -76 55 -157 63 -181
l16 -43 59 3 60 3 20 50 c12 28 34 82 50 120 16 39 33 79 38 90 5 11 18 43 29
70 l20 50 1 -110 c1 -60 5 -148 8 -195 l7 -85 74 -2 74 -1 -7 84 c-3 46 -11
152 -16 236 -6 84 -13 159 -15 166 -4 9 -29 12 -101 10 l-97 -3 -34 -80 c-19
-44 -49 -120 -68 -170 -18 -49 -36 -83 -38 -75 -3 8 -13 41 -23 73 -9 32 -21
60 -25 63 -5 3 -9 11 -9 19 0 7 -14 50 -31 94 l-31 81 -99 0 c-54 0 -99 -1
-100 -2z"/>
<path d="M9011 4768 c-16 -35 -34 -76 -41 -93 -7 -16 -40 -97 -75 -180 -34
-82 -59 -154 -55 -158 4 -5 38 -7 75 -5 l67 3 23 60 22 60 100 3 99 3 25 -63
24 -63 79 -3 78 -3 -6 26 c-4 14 -17 49 -30 78 -14 28 -33 75 -44 102 -12 28
-43 104 -70 170 l-49 120 -97 3 -97 3 -28 -63z m164 -154 c20 -54 21 -63 8
-68 -24 -10 -111 -7 -118 4 -3 5 9 51 27 102 l32 92 14 -34 c7 -18 24 -62 37
-96z"/>
<path d="M9567 4821 c-21 -3 -38 -9 -37 -13 0 -5 0 -113 0 -242 l0 -234 73 1
72 2 3 98 3 97 35 0 c53 0 88 -23 108 -72 10 -24 26 -61 36 -83 l18 -41 72 -2
73 -3 -7 28 c-16 70 -52 147 -82 179 l-33 34 27 14 c83 43 101 122 40 182 -47
48 -115 64 -253 62 -60 0 -127 -4 -148 -7z m236 -82 c25 -7 41 -18 47 -34 22
-58 -23 -95 -115 -95 l-55 0 0 70 0 70 43 0 c23 0 59 -5 80 -11z"/>
<path d="M10072 4783 l3 -48 82 -3 83 -3 2 -197 3 -197 78 -3 77 -3 0 201 0
200 78 0 c42 0 83 4 90 9 8 5 12 23 10 47 l-3 39 -253 3 -253 2 3 -47z"/>
<path d="M14904 4804 c-127 -53 -191 -143 -181 -256 6 -69 42 -121 115 -166
65 -40 123 -52 246 -52 109 0 158 10 152 32 -3 7 -7 24 -10 38 -5 25 -6 25
-118 25 -88 0 -120 4 -145 17 -76 42 -107 151 -61 217 42 62 78 76 208 78
l115 1 9 36 c5 20 6 39 2 43 -4 5 -67 9 -139 11 -122 2 -137 0 -193 -24z"/>
<path d="M16504 4817 c-2 -7 -3 -118 -2 -247 l3 -235 205 0 205 0 0 45 0 45
-132 3 -133 3 0 199 0 200 -70 0 c-48 0 -72 -4 -76 -13z"/>
<path d="M16854 4816 c-9 -24 0 -81 14 -82 6 -1 47 -2 90 -3 l77 -1 -2 -186
c-1 -103 1 -193 4 -200 4 -10 25 -14 74 -14 l69 0 0 200 0 199 93 3 92 3 3 48
3 47 -256 0 c-210 0 -257 -2 -261 -14z"/>
<path d="M17483 4823 l-33 -4 0 -245 0 -246 168 4 c144 3 176 7 237 28 191 66
247 271 107 391 -64 55 -133 72 -302 75 -80 1 -160 0 -177 -3z m297 -95 c66
-23 100 -70 100 -140 0 -100 -71 -161 -202 -173 l-78 -7 0 166 0 166 74 0 c40
0 88 -5 106 -12z"/>
<path d="M12900 4806 c-138 -40 -210 -120 -210 -233 1 -104 52 -174 160 -217
59 -24 257 -33 352 -16 l68 12 0 129 0 130 -122 -3 -123 -3 0 -35 c0 -34 1
-35 45 -38 50 -4 60 -13 60 -57 0 -53 -12 -60 -89 -58 -126 4 -196 61 -196
160 0 59 22 96 76 128 30 17 52 20 170 20 l136 0 10 38 c7 27 7 40 -1 45 -20
13 -288 12 -336 -2z"/>
<path d="M14000 4575 l0 -246 73 3 72 3 1 90 1 90 45 3 c58 4 88 -20 111 -89
35 -103 31 -99 115 -99 66 0 74 2 69 18 -31 109 -45 139 -84 179 -25 25 -36
43 -28 43 8 0 33 16 55 36 45 40 52 81 26 133 -33 63 -102 81 -305 81 l-151 0
0 -245z m285 153 c26 -12 40 -42 33 -75 -5 -27 -56 -47 -118 -48 l-55 0 2 65
c1 36 2 66 3 68 1 8 113 0 135 -10z"/>
<path d="M15996 4439 c-29 -23 -33 -54 -10 -87 30 -43 149 -22 155 28 4 36 -3
50 -31 65 -40 21 -82 19 -114 -6z"/>
<path d="M16285 4453 c-28 -4 -32 -10 -58 -86 -41 -120 -44 -132 -23 -124 10
4 31 7 46 7 24 0 36 10 68 58 37 54 82 135 82 147 0 5 -65 4 -115 -2z"/>
</g>
</svg>
